<svg xmlns="http://www.w3.org/2000/svg" width="57.49" height="78.56" viewBox="0 0 57.49 78.56">
  <g id="Favorite" transform="translate(-10805 -6567.908)">
    <g id="Path_3073" data-name="Path 3073" transform="translate(10805 6612.701)" fill="none">
      <path d="M3.23,0H54.26a3.23,3.23,0,0,1,3.23,3.23L52.818,29.068c0,1.784-1.833,2.67-3.617,2.67H8.2c-1.784,0-3.617-.886-3.617-2.67L0,3.23A3.23,3.23,0,0,1,3.23,0Z" stroke="none"/>
      <path d="M 3.229778289794922 0.9999961853027344 C 2.027065277099609 0.9999961853027344 1.043697357177734 1.957107543945313 1.001415252685547 3.149688720703125 L 5.571266174316406 28.8932056427002 L 5.586654663085938 28.97991561889648 L 5.586654663085938 29.06798553466797 C 5.586654663085938 29.55162620544434 5.811065673828125 29.93314552307129 6.272716522216797 30.23434638977051 C 6.763217926025391 30.55436515808105 7.467056274414063 30.73790550231934 8.203758239746094 30.73790550231934 L 49.20046615600586 30.73790550231934 C 49.93716812133789 30.73790550231934 50.64099502563477 30.55436515808105 51.13149642944336 30.23434638977051 C 51.59314727783203 29.93314552307129 51.81755828857422 29.55162620544434 51.81755828857422 29.06798553466797 L 51.81755828857422 28.97829627990723 L 51.83351516723633 28.89003562927246 L 56.48854446411133 3.148221969604492 C 56.44545745849609 1.956367492675781 55.46242141723633 0.9999961853027344 54.26023483276367 0.9999961853027344 L 3.229778289794922 0.9999961853027344 M 3.229778289794922 -3.814697265625e-06 L 54.26023483276367 -3.814697265625e-06 C 56.04398727416992 -3.814697265625e-06 57.49001693725586 1.446016311645508 57.49001693725586 3.229776382446289 L 52.81755828857422 29.06798553466797 C 52.81755828857422 30.85174560546875 50.98421478271484 31.73790550231934 49.20046615600586 31.73790550231934 L 8.203758239746094 31.73790550231934 C 6.419998168945313 31.73790550231934 4.586654663085938 30.85174560546875 4.586654663085938 29.06798553466797 L -3.814697265625e-06 3.229776382446289 C -3.814697265625e-06 1.446016311645508 1.446018218994141 -3.814697265625e-06 3.229778289794922 -3.814697265625e-06 Z" stroke="none" fill="#3743b1"/>
    </g>
    <line id="Line_80" data-name="Line 80" x2="43.925" transform="translate(10811.782 6645.968)" fill="none" stroke="#3743b1" stroke-width="1"/>
    <path id="Path_3074" data-name="Path 3074" d="M10811.834,6631.217l1.5-4.013a16.53,16.53,0,0,1,3.295-4.2,7.321,7.321,0,0,1,4-1.744,36.735,36.735,0,0,1,6.019-.6,10.74,10.74,0,0,0,2.589,2.153,7.183,7.183,0,0,0,3.263,1.333,12.958,12.958,0,0,0,4.813.42,12.137,12.137,0,0,0,5.27-1.235,11.461,11.461,0,0,0,3.876-2.67l4.322.53a17.187,17.187,0,0,1,4.457,1.211,7.822,7.822,0,0,1,3.23,2.358c1.15,1.358.84,1.311,1.549,2.971a24.079,24.079,0,0,1,1.163,3.875" transform="translate(-2.42 -18.516)" fill="none" stroke="#3743b1" stroke-width="1"/>
    <path id="Path_3075" data-name="Path 3075" d="M10831.955,6592.208h0a15.45,15.45,0,0,0,2.648,4.328,17.74,17.74,0,0,0,4.78,3.488,7.282,7.282,0,0,0,3.811.388c1.986-.388,2.148-.388,4.135-1.938a17.232,17.232,0,0,0,3.811-4.263,14.651,14.651,0,0,0,2-3.488s.339.162,1.1-.9a12.407,12.407,0,0,0,1.292-3.359v-2.326a1.6,1.6,0,0,0-.711-1.421s-.307-3.23-.581-5.362-.322-1.663-1.1-3.1-.355-1.325-2-2.648a11.711,11.711,0,0,0-4.586-2.648c-2.31-.775-2.084-.614-4.651-.452s-3.133.048-5.619,1.1-2.665,1.163-4.328,3.1-1.615,2.019-2.326,4.65a21.624,21.624,0,0,0-.517,5.878,1.393,1.393,0,0,0-1.1.9c-.274.808-.13,1.05,0,2.326a5.973,5.973,0,0,0,.517,2.777,3.425,3.425,0,0,0,1.68,1.486Z" transform="translate(-8.093)" fill="none" stroke="#3743b1" stroke-width="1"/>
    <path id="Path_3076" data-name="Path 3076" d="M10830.05,6589.093l1.776,1.615,1.034-2a4.359,4.359,0,0,1,1.356-1.809,11.65,11.65,0,0,1,2.713-1.421,7.29,7.29,0,0,0,2.907.582c2.18.145,3.6,0,5.813,0h3.036l1.809,1.227v-1.227a3.527,3.527,0,0,1,1.355,1.227,8.923,8.923,0,0,1,.905,2.261l.71,1.163,2-2" transform="translate(-8.869 -6.057)" fill="none" stroke="#3743b1" stroke-width="1"/>
    <g id="Polygon_2" data-name="Polygon 2" transform="translate(10829.745 6624.468)" fill="#3743b1">
      <path d="M 6.945443153381348 8.527193069458008 L 4.619480133056641 7.517340183258057 L 4.5 7.465459823608398 L 4.380519866943359 7.517340183258057 L 2.054557085037231 8.527193069458008 L 2.250790119171143 5.867800235748291 L 2.25954008102417 5.749209880828857 L 2.184669971466064 5.656829833984375 L 0.5283687710762024 3.61316180229187 L 2.998759984970093 2.986510038375854 L 3.120609998703003 2.955600023269653 L 3.184030055999756 2.847059965133667 L 4.5 0.5946875214576721 L 5.815969944000244 2.847059965133667 L 5.879389762878418 2.955600023269653 L 6.001239776611328 2.986510038375854 L 8.471631050109863 3.61316180229187 L 6.815330028533936 5.656829833984375 L 6.74045991897583 5.749209880828857 L 6.749209880828857 5.867800235748291 L 6.945443153381348 8.527193069458008 Z" stroke="none"/>
      <path d="M 4.5 1.189374923706055 L 3.443059921264648 2.998400211334229 L 3.316229820251465 3.215479850769043 L 3.072529792785645 3.277299880981445 L 1.0567307472229 3.788637638092041 L 2.41772985458374 5.467940330505371 L 2.567470073699951 5.652699947357178 L 2.549970149993896 5.889869689941406 L 2.39025354385376 8.054386138916016 L 4.261050224304199 7.242149829864502 L 4.5 7.138410091400146 L 4.738949775695801 7.242149829864502 L 6.609746932983398 8.054386138916016 L 6.450030326843262 5.889869689941406 L 6.432529926300049 5.652699947357178 L 6.582269668579102 5.467940330505371 L 7.943268775939941 3.788637638092041 L 5.927470207214355 3.277299880981445 L 5.683770179748535 3.215479850769043 L 5.556940078735352 2.998400211334229 L 4.5 1.189374923706055 M 4.5 0 L 6.074999809265137 2.695720195770264 L 9 3.437689781188965 L 7.048399925231934 5.845720291137695 L 7.281149864196777 9 L 4.5 7.792520046234131 L 1.718850135803223 9 L 1.951600074768066 5.845720291137695 L 0 3.437689781188965 L 2.925000190734863 2.695720195770264 L 4.5 0 Z" stroke="none" fill="#3743b1"/>
    </g>
  </g>
</svg>
