<svg xmlns="http://www.w3.org/2000/svg" width="82.301" height="77.653" viewBox="0 0 82.301 77.653">
  <g id="gig-worker" transform="translate(-6316.365 -4257.475)">
    <path id="Path_33" data-name="Path 33" d="M6316.4,4304.75h37.8l5.514,26.335v3.543h17.028V4332h-55.085v2.628h38.057" fill="none" stroke="#3743b1" stroke-linejoin="round" stroke-width="1"/>
    <path id="Path_34" data-name="Path 34" d="M6321.771,4331.657l-4.914-26.857" fill="none" stroke="#3743b1" stroke-width="1"/>
    <g id="Path_35" data-name="Path 35" transform="translate(6334 4316)" fill="none">
      <path d="M3.4-.375c2.209,0,5.2,2.543,5.2,4.2s-1.941,2.6-4.15,2.6A4.341,4.341,0,0,1,.3,2.675,2.813,2.813,0,0,1,3.4-.375Z" stroke="none"/>
      <path d="M 3.399901390075684 0.625002384185791 C 2.656161308288574 0.625002384185791 2.106211185455322 0.8174023628234863 1.765331268310547 1.19686222076416 C 1.380571365356445 1.625172138214111 1.299801349639893 2.236982345581055 1.299801349639893 2.674802303314209 C 1.299801349639893 3.735662460327148 2.741570949554443 5.424802303314209 4.450191020965576 5.424802303314209 C 5.977190971374512 5.424802303314209 7.600100994110107 4.864182472229004 7.600100994110107 3.825192451477051 C 7.600100994110107 3.432192325592041 7.116721153259277 2.636402368545532 6.192841053009033 1.875812530517578 C 5.255681037902832 1.104282379150391 4.18549108505249 0.625002384185791 3.399901390075684 0.625002384185791 M 3.399901390075684 -0.374997615814209 C 5.609041213989258 -0.374997615814209 8.600101470947266 2.168342351913452 8.600101470947266 3.825192451477051 C 8.600101470947266 5.482052326202393 6.659331321716309 6.424802303314209 4.450191020965576 6.424802303314209 C 2.241061210632324 6.424802303314209 0.2998008728027344 4.331662178039551 0.2998008728027344 2.674802303314209 C 0.2998008728027344 1.017952442169189 1.190761089324951 -0.374997615814209 3.399901390075684 -0.374997615814209 Z" stroke="none" fill="#3743b1"/>
    </g>
    <path id="Path_36" data-name="Path 36" d="M6381.483,4318.833h12.2v13.533a2.826,2.826,0,0,1-2,1.733c-1.385.156-7.569.406-8.867,0a1.936,1.936,0,0,1-1.333-1.733Z" fill="none" stroke="#3743b1" stroke-width="1"/>
    <path id="Path_37" data-name="Path 37" d="M6393.684,4321.033a5.764,5.764,0,0,1,2.733,0,2.321,2.321,0,0,1,1.6,1.6c.311.727,0,5.8,0,5.8a1.551,1.551,0,0,1-1.134,1.333,9.644,9.644,0,0,1-3.2,0" fill="none" stroke="#3743b1" stroke-width="1"/>
    <path id="Path_38" data-name="Path 38" d="M6388.217,4318.833V4316.7s-.144-1.55-1.133-1.8-3.7.225-4.333,0a2.736,2.736,0,0,1-1.333-1.2,2.335,2.335,0,0,1,0-1.975l.677-.75.99-.542c.89-.092,7.281.158,8.533,0a1.84,1.84,0,0,0,1.533-1.333v-1.533s-.131-1.092-1-1.267-6.533,0-6.533,0" fill="none" stroke="#3743b1" stroke-linecap="round" stroke-linejoin="round" stroke-width="1"/>
    <path id="Path_39" data-name="Path 39" d="M6361.017,4301.9s.011,7.425,0,8-.367,1.8,2.266,2.4a19.2,19.2,0,0,0,8.267,0c2.8-.6,2.933-2.4,2.933-2.4v-8.6" fill="none" stroke="#3743b1" stroke-width="1"/>
    <path id="Path_40" data-name="Path 40" d="M6355.15,4305.633l3.6-1.533,2-.667" fill="none" stroke="#3743b1" stroke-width="1"/>
    <path id="Path_41" data-name="Path 41" d="M6374.816,4303.433l4.467,1.8,4.333,3.067" fill="none" stroke="#3743b1" stroke-width="1"/>
    <path id="Path_42" data-name="Path 42" d="M6353.017,4277.833s-.4,11.2,0,13.133a12.531,12.531,0,0,0,1.866,4.466,16.762,16.762,0,0,0,2.467,3.335,15.266,15.266,0,0,0,3.512,2.944,9.412,9.412,0,0,0,4.888,1.121,13.907,13.907,0,0,0,5.612-.5,13.619,13.619,0,0,0,5.725-2.956,11.462,11.462,0,0,0,3.663-3.948,10.592,10.592,0,0,0,1.733-4.466c.339-2.064,0-13.133,0-13.133" fill="none" stroke="#3743b1" stroke-width="1"/>
    <path id="Path_43" data-name="Path 43" d="M6353.017,4279.567a2.279,2.279,0,0,0-1.734,0c-.7.417-.8.7-1.066,1.667a3.123,3.123,0,0,0,0,2.2,1.786,1.786,0,0,0,1.066,1.4,3.408,3.408,0,0,0,1.734.4" fill="none" stroke="#3743b1" stroke-width="1"/>
    <path id="Path_44" data-name="Path 44" d="M6382.483,4278.967a14.8,14.8,0,0,1,2.023.952c.6.4.627.681.7,1.55s.167,1.225-.5,1.975a5.246,5.246,0,0,1-2.223,1.123" fill="none" stroke="#3743b1" stroke-width="1"/>
    <path id="Path_45" data-name="Path 45" d="M6357.288,4268.656a4.977,4.977,0,0,1-3.125,1.1,56.871,56.871,0,0,1-5.913-.256,16.346,16.346,0,0,0,3.333,3.667c1.967,1.517,1.333,1.617,4.533,2.4a23.85,23.85,0,0,0,8.267.733c3.983-.117,4.617-.2,7.667-1.2s3-1.3,4.533-2.8a5.179,5.179,0,0,0,1.6-3.2" fill="none" stroke="#3743b1" stroke-width="1"/>
    <path id="Path_46" data-name="Path 46" d="M6376.25,4272.7a9.4,9.4,0,0,0,1,2.2,5.9,5.9,0,0,0,2.467,2.133c1.35.65,1.852.879,2.933.467s1.2-2.073,1.467-3.733a12.709,12.709,0,0,0,0-4.667,13.962,13.962,0,0,0-3.2-5.733,14.728,14.728,0,0,0-4.523-3.329,12.64,12.64,0,0,0-5.15-1.7,14.274,14.274,0,0,0-5.261-.3,12.164,12.164,0,0,0-5.483,1.3,11.8,11.8,0,0,0-4.388,2.825,7.96,7.96,0,0,0-2.644,3.612,12.339,12.339,0,0,0-1.085,4" fill="none" stroke="#3743b1" stroke-width="1"/>
    <path id="Path_47" data-name="Path 47" d="M6352.383,4273.9a3.952,3.952,0,0,0-.667,1.867c0,.9.017,1.3.667,1.733s.95.267,1.933,0a5.665,5.665,0,0,0,2-1.067c.65-.433.6-.667.6-.667" fill="none" stroke="#3743b1" stroke-width="1"/>
    <g id="Ellipse_13" data-name="Ellipse 13" transform="translate(6360 4281)" fill="#fff" stroke="#3743b1" stroke-width="1">
      <circle cx="1" cy="1" r="1" stroke="none"/>
      <circle cx="1" cy="1" r="0.5" fill="none"/>
    </g>
    <g id="Ellipse_14" data-name="Ellipse 14" transform="translate(6373 4281)" fill="#fff" stroke="#3743b1" stroke-width="1">
      <circle cx="1" cy="1" r="1" stroke="none"/>
      <circle cx="1" cy="1" r="0.5" fill="none"/>
    </g>
    <g id="Path_48" data-name="Path 48" transform="translate(6363.25 4286)" fill="none">
      <path d="M4.5,1.833C6.985,1.833,9,1.343,9,3S6.985,6,4.5,6,0,4.657,0,3,2.015,1.833,4.5,1.833Z" stroke="none"/>
      <path d="M 2.002309799194336 2.765702724456787 C 1.311427116394043 2.765702724456787 1.07921838760376 2.843775272369385 1.009637355804443 2.879029273986816 C 1.005214691162109 2.900923728942871 1 2.939558029174805 1 3.000002861022949 C 1 3.945972919464111 2.437399864196777 5.000002861022949 4.5 5.000002861022949 C 6.562600135803223 5.000002861022949 8 3.945972919464111 8 3.000002861022949 C 8 2.939525127410889 7.994784832000732 2.900861263275146 7.990360260009766 2.878944873809814 C 7.920761108398438 2.843702793121338 7.688545227050781 2.765676975250244 6.997719764709473 2.765702724456787 C 6.683700084686279 2.765712738037109 6.326610088348389 2.780192852020264 5.948559761047363 2.795522689819336 C 5.509550094604492 2.813323020935059 5.011960029602051 2.833492755889893 4.5 2.833492755889893 C 3.988029956817627 2.833492755889893 3.490530014038086 2.813313007354736 3.051599979400635 2.795513153076172 C 2.673520088195801 2.780182838439941 2.316400051116943 2.765702724456787 2.002309799194336 2.765702724456787 M 2.002305507659912 1.765701770782471 C 2.716903209686279 1.765701770782471 3.575907707214355 1.833492755889893 4.5 1.833492755889893 C 5.423940658569336 1.833492755889893 6.283166885375977 1.765721797943115 6.997694492340088 1.765701770782471 C 8.205153465270996 1.76566743850708 9 1.959105491638184 9 3.000002861022949 C 9 4.656852722167969 6.98528003692627 6.000002861022949 4.5 6.000002861022949 C 2.01471996307373 6.000002861022949 0 4.656852722167969 0 3.000002861022949 C 0 1.959207057952881 0.7950439453125 1.765701770782471 2.002305507659912 1.765701770782471 Z" stroke="none" fill="#3743b1"/>
    </g>
  </g>
</svg>
