<svg xmlns="http://www.w3.org/2000/svg" width="84.672" height="82.075" viewBox="0 0 84.672 82.075">
  <g id="instant" transform="translate(-6137.869 -4194.76)">
    <g id="Group_51" data-name="Group 51" transform="translate(6138.639 4224.618)">
      <path id="Path_9" data-name="Path 9" d="M6175,4400.356V4395.6h20.863v4.756" transform="translate(-6161.055 -4348.139)" fill="none" stroke="#3743b1" stroke-width="1.5"/>
      <path id="Path_10" data-name="Path 10" d="M6181.35,4347.426s.138-8.622,0-11.015a7.027,7.027,0,0,0-2.041-4.173c.045.062-16.915-14.241-17.951-14.574a5.761,5.761,0,0,0-2.328-.164,3.088,3.088,0,0,0-.8.218,3.35,3.35,0,0,0-2.042,2.247,3.554,3.554,0,0,0,0,2.608c.46.925,9.358,8.744,9.358,8.744" transform="translate(-6149.302 -4299.964)" fill="none" stroke="#3743b1" stroke-width="1.5"/>
      <path id="Path_11" data-name="Path 11" d="M6155.192,4319.311v-3.068l-16.415-14.574s-.312-25.548,0-27.153a3.252,3.252,0,0,1,2-2.45,4.867,4.867,0,0,1,3.337.173,3.838,3.838,0,0,1,2.052,2.594c.129.7.172,9.971.172,9.971" transform="translate(-6138.639 -4271.849)" fill="none" stroke="#3743b1" stroke-width="1.5"/>
    </g>
    <g id="Group_52" data-name="Group 52" transform="translate(6186.963 4224.618)">
      <path id="Path_9-2" data-name="Path 9" d="M6195.864,4400.356V4395.6H6175v4.756" transform="translate(-6175 -4348.139)" fill="none" stroke="#3743b1" stroke-width="1.5"/>
      <path id="Path_10-2" data-name="Path 10" d="M6156,4347.426s-.138-8.622,0-11.015a7.024,7.024,0,0,1,2.041-4.173c-.046.062,16.915-14.241,17.951-14.574a5.758,5.758,0,0,1,2.328-.164,3.088,3.088,0,0,1,.8.218,3.352,3.352,0,0,1,2.042,2.247,3.554,3.554,0,0,1,0,2.608c-.46.925-9.358,8.744-9.358,8.744" transform="translate(-6153.236 -4299.964)" fill="none" stroke="#3743b1" stroke-width="1.5"/>
      <path id="Path_11-2" data-name="Path 11" d="M6138.639,4319.311v-3.068l16.415-14.574s.312-25.548,0-27.153a3.252,3.252,0,0,0-2-2.45,4.867,4.867,0,0,0-3.337.173,3.837,3.837,0,0,0-2.052,2.594c-.129.7-.172,9.971-.172,9.971" transform="translate(-6120.383 -4271.849)" fill="none" stroke="#3743b1" stroke-width="1.5"/>
    </g>
    <g id="Ellipse_9" data-name="Ellipse 9" transform="translate(6177.896 4216.238)" fill="none" stroke="#3743b1" stroke-width="1">
      <circle cx="2.301" cy="2.301" r="2.301" stroke="none"/>
      <circle cx="2.301" cy="2.301" r="1.801" fill="none"/>
    </g>
    <line id="Line_6" data-name="Line 6" y1="4.986" x2="8.438" transform="translate(6170.034 4219.498)" fill="none" stroke="#3743b1" stroke-width="1"/>
    <line id="Line_7" data-name="Line 7" y2="11.122" transform="translate(6180.389 4205.308)" fill="none" stroke="#3743b1" stroke-width="1"/>
    <line id="Line_8" data-name="Line 8" x2="7.67" transform="translate(6140.887 4214.512)" fill="none" stroke="#3743b1" stroke-linecap="round" stroke-width="1.5"/>
    <line id="Line_9" data-name="Line 9" x2="4.602" transform="translate(6152.776 4201.473)" fill="none" stroke="#3743b1" stroke-linecap="round" stroke-width="2"/>
    <line id="Line_10" data-name="Line 10" x2="2.301" transform="translate(6144.722 4201.473)" fill="none" stroke="#3743b1" stroke-linecap="round" stroke-width="1.5"/>
    <line id="Line_11" data-name="Line 11" x2="6.903" transform="translate(6151.625 4225.25)" fill="none" stroke="#3743b1" stroke-linecap="round" stroke-width="1.5"/>
    <line id="Line_12" data-name="Line 12" x2="4.602" transform="translate(6155.46 4238.291)" fill="none" stroke="#3743b1" stroke-linecap="round" stroke-width="1.5"/>
    <path id="Path_12" data-name="Path 12" d="M6190.5,4209.526a35.25,35.25,0,0,1,2.633-4.295,21.4,21.4,0,0,1,3.324-3.835,20.8,20.8,0,0,1,4.6-3.222,21.213,21.213,0,0,1,4.3-1.841,24.389,24.389,0,0,1,4.7-.921,20.253,20.253,0,0,1,5.318,0,22.233,22.233,0,0,1,11.3,5.114,28.492,28.492,0,0,1,4.6,4.964,20.4,20.4,0,0,1,2.632,4.343,16.848,16.848,0,0,1,1.381,4.43,18.783,18.783,0,0,1,.412,4.981,16.516,16.516,0,0,1-.881,5.521,16.986,16.986,0,0,1-2.149,5.063,20.123,20.123,0,0,1-3.077,4.238,17.75,17.75,0,0,1-3.562,3.337,13.351,13.351,0,0,1-3.351,2.143,26.032,26.032,0,0,1-7.575,2.306,14.765,14.765,0,0,1-4.224.148,17.81,17.81,0,0,1-4.976-.916,18.075,18.075,0,0,1-4.563-1.707,13.275,13.275,0,0,1-3.469-2.226,14.4,14.4,0,0,1-2.761-2.582c-1.406-1.515-2.864-3.478-2.864-3.478" transform="translate(-31.971)" fill="none" stroke="#3743b1" stroke-linecap="round" stroke-width="1"/>
    <line id="Line_13" data-name="Line 13" x2="2.301" transform="translate(6156.228 4214.896)" fill="none" stroke="#3743b1" stroke-width="1"/>
    <line id="Line_14" data-name="Line 14" x2="2.685" transform="translate(6160.83 4218.731)" fill="none" stroke="#3743b1" stroke-linecap="round" stroke-width="2"/>
    <line id="Line_15" data-name="Line 15" x2="2.301" y2="1.534" transform="translate(6163.515 4208.759)" fill="none" stroke="#3743b1" stroke-linecap="round" stroke-width="2"/>
    <line id="Line_16" data-name="Line 16" x2="1.918" y2="2.301" transform="translate(6170.034 4201.856)" fill="none" stroke="#3743b1" stroke-linecap="round" stroke-width="2"/>
    <line id="Line_17" data-name="Line 17" y2="2.685" transform="translate(6180.389 4199.171)" fill="none" stroke="#3743b1" stroke-linecap="round" stroke-width="2"/>
    <line id="Line_18" data-name="Line 18" x1="1.151" y2="1.534" transform="translate(6188.827 4202.239)" fill="none" stroke="#3743b1" stroke-linecap="round" stroke-width="2"/>
    <line id="Line_19" data-name="Line 19" x1="1.918" y2="1.534" transform="translate(6194.963 4208.759)" fill="none" stroke="#3743b1" stroke-linecap="round" stroke-width="2"/>
    <line id="Line_20" data-name="Line 20" x1="2.685" transform="translate(6196.881 4218.731)" fill="none" stroke="#3743b1" stroke-linecap="round" stroke-width="2"/>
    <line id="Line_21" data-name="Line 21" x1="1.918" y1="1.534" transform="translate(6194.963 4226.785)" fill="none" stroke="#3743b1" stroke-linecap="round" stroke-width="2"/>
    <line id="Line_22" data-name="Line 22" x2="0.767" y2="1.534" transform="translate(6188.827 4233.305)" fill="none" stroke="#3743b1" stroke-linecap="round" stroke-width="2"/>
    <line id="Line_23" data-name="Line 23" y2="1.918" transform="translate(6180.389 4235.606)" fill="none" stroke="#3743b1" stroke-linecap="round" stroke-width="2"/>
    <line id="Line_24" data-name="Line 24" x1="1.534" y2="1.918" transform="translate(6170.418 4233.305)" fill="none" stroke="#3743b1" stroke-linecap="round" stroke-width="2"/>
    <line id="Line_25" data-name="Line 25" x1="1.918" y2="1.534" transform="translate(6163.898 4226.785)" fill="none" stroke="#3743b1" stroke-linecap="round" stroke-width="2"/>
  </g>
</svg>
