<svg id="linkedin" xmlns="http://www.w3.org/2000/svg" width="18" height="18" viewBox="0 0 18 18">
  <path id="Path_3" data-name="Path 3" d="M20.118,19.893h0v-6.6c0-3.229-.7-5.717-4.471-5.717a3.919,3.919,0,0,0-3.53,1.94h-.052V7.876H8.489V19.893h3.727V13.942c0-1.567.3-3.082,2.237-3.082,1.912,0,1.94,1.788,1.94,3.182v5.851Z" transform="translate(-2.122 -1.894)" fill="#0077b5"/>
  <path id="Path_4" data-name="Path 4" d="M.4,7.977H4.128V19.994H.4Z" transform="translate(-0.099 -1.994)" fill="#0077b5"/>
  <path id="Path_5" data-name="Path 5" d="M2.161,0A2.172,2.172,0,1,0,4.323,2.161,2.162,2.162,0,0,0,2.161,0Z" fill="#0077b5"/>
</svg>
